<svg height='300px' width='300px'  fill="#000000" xmlns="http://www.w3.org/2000/svg" xmlns:xlink="http://www.w3.org/1999/xlink" version="1.1" x="0px" y="0px" viewBox="0 0 100 100" enable-background="new 0 0 100 100" xml:space="preserve"><g><circle cx="82.4" cy="48.7" r="2.9"></circle><circle cx="78.2" cy="39.1" r="2.9"></circle><circle cx="78.2" cy="58.4" r="2.9"></circle><g><path d="M65.3,58.6c-1.2,0-2.1-0.9-2.1-2.1s0.9-2.1,2.1-2.1c3.1,0,5.6-2.5,5.6-5.6s-2.5-5.6-5.6-5.6c-1.2,0-2.1-0.9-2.1-2.1    s0.9-2.1,2.1-2.1c5.4,0,9.9,4.4,9.9,9.9S70.7,58.6,65.3,58.6z"></path><path d="M36.4,60.7H24.5c-4,0-7.2-3.2-7.2-7.2v-9.6c0-4,3.2-7.2,7.2-7.2h11.8c1.2,0,2.1,0.9,2.1,2.1v19.7    C38.5,59.8,37.5,60.7,36.4,60.7z M24.5,41c-1.6,0-3,1.3-3,3v9.6c0,1.6,1.3,3,3,3h9.7V41H24.5z"></path><path d="M58.2,71.9c-1,0-2.1-0.3-3-0.8L35.4,60.5c-0.7-0.4-1.1-1.1-1.1-1.9V38.9c0-0.8,0.4-1.5,1.1-1.9l19.8-10.7    c2-1.1,4.3-1,6.3,0.1c1.9,1.2,3.1,3.2,3.1,5.5v33.6c0,2.3-1.2,4.3-3.1,5.5C60.5,71.6,59.4,71.9,58.2,71.9z M38.5,57.3l18.7,10.1    c1,0.5,1.8,0.1,2.1,0c0.3-0.2,1-0.7,1-1.8V31.9c0-1.1-0.7-1.7-1-1.8c-0.3-0.2-1.1-0.6-2.1,0L38.5,40.1V57.3z"></path><path d="M32,80c-2.8,0-5.3-1.9-5.9-4.7l-3.6-16.2c-0.1-0.6,0-1.3,0.4-1.8s1-0.8,1.6-0.8h9.6c1.1,0,2,0.8,2.1,1.9L38,73.2    c0.2,1.7-0.3,3.4-1.5,4.7C35.3,79.2,33.7,80,32,80z M27.2,60.7l3,13.6c0.2,0.8,0.9,1.4,1.8,1.4c0.5,0,1-0.2,1.3-0.6    c0.3-0.4,0.5-0.9,0.4-1.4l-1.5-13H27.2z"></path></g></g></svg>